<svg xmlns="http://www.w3.org/2000/svg" viewBox="0 0 256 256" fill="none">
  <rect width="256" height="256" rx="48" fill="#16A34A"/>
  <path d="M76 36h76l40 40v104c0 22.091-17.909 40-40 40H76c-22.091 0-40-17.909-40-40V76c0-22.091 17.909-40 40-40Z" fill="#FFFFFF"/>
  <path d="M152 36v32c0 13.255 10.745 24 24 24h32" fill="#BBF7D0"/>
  <rect x="64" y="88" width="128" height="22" rx="8" fill="#16A34A"/>
  <path d="M64 114h128" stroke="#86EFAC" stroke-width="8"/>
  <path d="M64 142h128" stroke="#D1FAE5" stroke-width="8"/>
  <path d="M64 170h128" stroke="#D1FAE5" stroke-width="8"/>
  <path d="M96 88v102" stroke="#D1FAE5" stroke-width="8"/>
  <path d="M128 88v102" stroke="#D1FAE5" stroke-width="8"/>
  <path d="M160 88v102" stroke="#D1FAE5" stroke-width="8"/>
  <rect x="124" y="138" width="36" height="36" rx="8" fill="#16A34A" opacity=".18" stroke="#15803D" stroke-width="8"/>
</svg>
