<svg xmlns="http://www.w3.org/2000/svg" viewBox="0 0 256 256" fill="none">
  <rect width="256" height="256" rx="48" fill="#DC2626"/>
  <path d="M76 36h76l40 40v104c0 22.091-17.909 40-40 40H76c-22.091 0-40-17.909-40-40V76c0-22.091 17.909-40 40-40Z" fill="#FFFFFF"/>
  <path d="M152 36v32c0 13.255 10.745 24 24 24h32" fill="#FECACA"/>
  <rect x="70" y="94" width="88" height="14" rx="7" fill="#DC2626"/>
  <rect x="70" y="120" width="78" height="10" rx="5" fill="#CBD5E1"/>
  <rect x="70" y="140" width="68" height="10" rx="5" fill="#CBD5E1"/>
  <circle cx="154" cy="160" r="34" fill="#FEE2E2" stroke="#B91C1C" stroke-width="10"/>
  <path d="m177 183 29 29" stroke="#B91C1C" stroke-linecap="round" stroke-width="12"/>
  <path d="M143 160h22" stroke="#B91C1C" stroke-linecap="round" stroke-width="10"/>
  <path d="M154 149v22" stroke="#B91C1C" stroke-linecap="round" stroke-width="10"/>
</svg>
